<?xml version="1.0" encoding="iso-8859-1"?>
<!-- Generator: Adobe Illustrator 19.0.0, SVG Export Plug-In . SVG Version: 6.00 Build 0)  -->
<svg version="1.1" id="Layer_1" xmlns="http://www.w3.org/2000/svg" xmlns:xlink="http://www.w3.org/1999/xlink" x="0px" y="0px"
	 viewBox="0 0 512 512" style="enable-background:new 0 0 512 512;" xml:space="preserve">
<g>
	<g>
		<g>
			<path d="M392.311,115.328c1.946,0,3.908-0.674,5.513-2.031l60.425-51.311c5.572,3.925,12.314,6.281,19.618,6.281
				c18.825,0,34.133-15.309,34.133-34.133C512,15.309,496.691,0,477.866,0c-18.825,0-34.133,15.309-34.133,34.133
				c0,5.325,1.331,10.308,3.516,14.805l-60.476,51.345c-3.593,3.055-4.036,8.439-0.981,12.032
				C387.481,114.304,389.879,115.328,392.311,115.328z M477.866,17.067c9.404,0,17.067,7.654,17.067,17.067
				c0,9.412-7.663,17.067-17.067,17.067c-9.412,0-17.067-7.654-17.067-17.067C460.8,24.721,468.454,17.067,477.866,17.067z"/>
			<path d="M230.399,477.867c-41.353,0-79.983-12.348-112.563-35.558l11.477-8.969c3.721-2.893,4.378-8.26,1.476-11.972
				c-2.91-3.721-8.26-4.395-11.972-1.476l-98.466,76.851c-3.721,2.893-4.378,8.26-1.476,11.972c1.681,2.159,4.19,3.285,6.733,3.285
				c1.835,0,3.686-0.589,5.239-1.809l73.02-56.986c36.309,27.221,79.846,41.728,126.532,41.728c4.719,0,8.533-3.823,8.533-8.533
				S235.118,477.867,230.399,477.867z"/>
			<path d="M477.866,119.467c-18.825,0-34.133,15.309-34.133,34.133c0,3.917,0.802,7.62,2.014,11.127l-58.624,45.747
				c-3.712,2.901-4.369,8.269-1.476,11.981c1.69,2.159,4.198,3.285,6.733,3.285c1.835,0,3.686-0.589,5.248-1.801l16.085-12.57
				c8.593,22.366,12.954,45.935,12.954,70.229c0,56.585-23.919,107.93-62.78,143.966c34.765-108.757,16.862-227.021-48.521-320.751
				c29.884,14.37,56.141,36.19,75.733,64.077c1.655,2.364,4.309,3.627,6.989,3.627c1.698,0,3.413-0.503,4.907-1.544
				c3.849-2.714,4.779-8.038,2.074-11.887c-39.962-56.875-105.25-90.82-174.669-90.82c-4.83,0-9.634,0.213-14.421,0.538
				c-0.213,0-0.418,0.026-0.649,0.043c-51.26,3.558-98.995,25.165-135.714,61.833c-3.328,3.336-3.328,8.73,0,12.066
				c3.337,3.345,8.73,3.337,12.066,0.009c19.089-19.063,41.438-33.621,65.741-43.358c12.689,11.059,24.465,22.912,35.234,35.473
				c-53.205,4.762-104.277,20.267-148.557,45.466c-0.213,0.119-0.333,0.333-0.546,0.469c-0.478,0.333-0.896,0.708-1.314,1.143
				c-0.393,0.418-0.742,0.836-1.041,1.314c-0.145,0.213-0.35,0.35-0.469,0.572c-11.998,23.253-19.558,48.802-22.374,74.94
				c-0.06,0.299-0.06,0.597-0.077,0.913c-0.751,7.279-1.212,14.592-1.212,21.914c0,27.682,5.222,54.613,15.531,80.051
				c1.34,3.319,4.54,5.333,7.91,5.333c1.067,0,2.159-0.205,3.209-0.623c4.369-1.775,6.468-6.75,4.702-11.119
				c-4.403-10.863-7.689-22.042-10.061-33.434c61.517-49.647,138.573-77.107,217.899-77.329
				c26.854,74.863,28.339,158.43,0.452,236.126c-0.068,0.188-0.026,0.367-0.085,0.555c-0.137,0.486-0.162,0.99-0.213,1.51
				c-0.06,0.614-0.137,1.203-0.06,1.801c0.017,0.171-0.043,0.316-0.017,0.486c0.077,0.461,0.316,0.836,0.461,1.271
				c0.137,0.393,0.23,0.794,0.427,1.169c0.358,0.7,0.836,1.297,1.374,1.869c0.171,0.188,0.29,0.401,0.478,0.572
				c1.536,1.374,3.524,2.227,5.666,2.227c0.469,0,0.956-0.034,1.434-0.119C369.058,474.573,443.733,386.108,443.733,281.6
				c0-28.151-5.444-55.39-16.051-81.126l27.571-21.504c6.033,5.385,13.901,8.764,22.613,8.764c18.825,0,34.133-15.309,34.133-34.133
				C512,134.775,496.691,119.467,477.866,119.467z M54.792,193.971c44.834-25.037,96.828-39.817,150.844-42.965
				c7.245,9.557,13.969,19.456,20.164,29.636c-66.765,2.935-132.198,24.337-187.588,61.15
				C41.617,225.271,47.129,209.289,54.792,193.971z M35.302,302.43c-0.725-6.886-1.169-13.824-1.169-20.83
				c0-5.615,0.316-11.17,0.777-16.7c57.719-42.3,128.572-66.116,200.525-67.422c5.222,9.796,9.958,19.823,14.225,30.037
				C171.938,229.265,96.776,255.497,35.302,302.43z M277.555,472.055c24.704-79.036,21.12-162.935-7.006-238.106
				c-0.179-0.742-0.418-1.434-0.777-2.082c-5.999-15.735-13.09-31.07-21.205-45.892c-0.239-0.674-0.614-1.246-1.007-1.818
				c-18.62-33.545-42.573-64.41-71.569-91.102c11.972-3.439,24.32-5.769,36.915-6.869c101.752,97.434,135.1,249.301,83.473,380.322
				C290.269,468.676,283.963,470.485,277.555,472.055z M317.943,457.284c43.964-128.589,12.186-273.365-81.621-371.772
				c16.768,0.512,33.229,3.149,49.032,7.765c80.947,99.174,101.299,233.583,53.291,352.102
				C332.023,449.749,325.128,453.717,317.943,457.284z M477.866,170.667c-9.412,0-17.067-7.654-17.067-17.067
				c0-9.412,7.654-17.067,17.067-17.067c9.404,0,17.067,7.654,17.067,17.067C494.933,163.012,487.27,170.667,477.866,170.667z"/>
			<path d="M73.813,426.496c1.69,1.809,3.977,2.731,6.272,2.731c2.074,0,4.156-0.751,5.803-2.27c3.456-3.2,3.661-8.602,0.461-12.058
				c-6.682-7.219-12.177-14.02-17.212-21.333l47.667-41.668c3.541-3.098,3.9-8.491,0.802-12.041
				c-3.106-3.55-8.508-3.908-12.041-0.811l-50.321,43.989c-0.828,0.213-1.664,0.435-2.423,0.913
				c-1.553,0.973-2.551,2.424-3.208,4.011L2.918,428.774c-3.55,3.098-3.908,8.491-0.811,12.041c1.681,1.929,4.053,2.918,6.426,2.918
				c1.997,0,4.002-0.691,5.615-2.108l42.069-36.779C61.414,412.237,67.046,419.183,73.813,426.496z"/>
		</g>
	</g>
</g>
<g>
</g>
<g>
</g>
<g>
</g>
<g>
</g>
<g>
</g>
<g>
</g>
<g>
</g>
<g>
</g>
<g>
</g>
<g>
</g>
<g>
</g>
<g>
</g>
<g>
</g>
<g>
</g>
<g>
</g>
</svg>
